<svg version="1.1" xmlns="http://www.w3.org/2000/svg" xmlns:xlink="http://www.w3.org/1999/xlink" width="1164" height="620"><defs/><g><text fill="#eeeeee" stroke="none" font-family="Arial" font-size="24px" font-style="normal" font-weight="normal" text-decoration="none" x="0" y="0">UNREGISTERED</text><text fill="#eeeeee" stroke="none" font-family="Arial" font-size="24px" font-style="normal" font-weight="normal" text-decoration="none" x="0" y="30">UNREGISTERED</text><text fill="#eeeeee" stroke="none" font-family="Arial" font-size="24px" font-style="normal" font-weight="normal" text-decoration="none" x="0" y="60">UNREGISTERED</text><text fill="#eeeeee" stroke="none" font-family="Arial" font-size="24px" font-style="normal" font-weight="normal" text-decoration="none" x="0" y="90">UNREGISTERED</text><text fill="#eeeeee" stroke="none" font-family="Arial" font-size="24px" font-style="normal" font-weight="normal" text-decoration="none" x="0" y="120">UNREGISTERED</text><text fill="#eeeeee" stroke="none" font-family="Arial" font-size="24px" font-style="normal" font-weight="normal" text-decoration="none" x="0" y="150">UNREGISTERED</text><text fill="#eeeeee" stroke="none" font-family="Arial" font-size="24px" font-style="normal" font-weight="normal" text-decoration="none" x="0" y="180">UNREGISTERED</text><text fill="#eeeeee" stroke="none" font-family="Arial" font-size="24px" font-style="normal" font-weight="normal" text-decoration="none" x="0" y="210">UNREGISTERED</text><text fill="#eeeeee" stroke="none" font-family="Arial" font-size="24px" font-style="normal" font-weight="normal" text-decoration="none" x="0" y="240">UNREGISTERED</text><text fill="#eeeeee" stroke="none" font-family="Arial" font-size="24px" font-style="normal" font-weight="normal" text-decoration="none" x="0" y="270">UNREGISTERED</text><text fill="#eeeeee" stroke="none" font-family="Arial" font-size="24px" font-style="normal" font-weight="normal" text-decoration="none" x="0" y="300">UNREGISTERED</text><text fill="#eeeeee" stroke="none" font-family="Arial" font-size="24px" font-style="normal" font-weight="normal" text-decoration="none" x="0" y="330">UNREGISTERED</text><text fill="#eeeeee" stroke="none" font-family="Arial" font-size="24px" font-style="normal" font-weight="normal" text-decoration="none" x="0" y="360">UNREGISTERED</text><text fill="#eeeeee" stroke="none" font-family="Arial" font-size="24px" font-style="normal" font-weight="normal" text-decoration="none" x="0" y="390">UNREGISTERED</text><text fill="#eeeeee" stroke="none" font-family="Arial" font-size="24px" font-style="normal" font-weight="normal" text-decoration="none" x="0" y="420">UNREGISTERED</text><text fill="#eeeeee" stroke="none" font-family="Arial" font-size="24px" font-style="normal" font-weight="normal" text-decoration="none" x="0" y="450">UNREGISTERED</text><text fill="#eeeeee" stroke="none" font-family="Arial" font-size="24px" font-style="normal" font-weight="normal" text-decoration="none" x="0" y="480">UNREGISTERED</text><text fill="#eeeeee" stroke="none" font-family="Arial" font-size="24px" font-style="normal" font-weight="normal" text-decoration="none" x="0" y="510">UNREGISTERED</text><text fill="#eeeeee" stroke="none" font-family="Arial" font-size="24px" font-style="normal" font-weight="normal" text-decoration="none" x="0" y="540">UNREGISTERED</text><text fill="#eeeeee" stroke="none" font-family="Arial" font-size="24px" font-style="normal" font-weight="normal" text-decoration="none" x="0" y="570">UNREGISTERED</text><text fill="#eeeeee" stroke="none" font-family="Arial" font-size="24px" font-style="normal" font-weight="normal" text-decoration="none" x="0" y="600">UNREGISTERED</text><text fill="#eeeeee" stroke="none" font-family="Arial" font-size="24px" font-style="normal" font-weight="normal" text-decoration="none" x="200" y="0">UNREGISTERED</text><text fill="#eeeeee" stroke="none" font-family="Arial" font-size="24px" font-style="normal" font-weight="normal" text-decoration="none" x="200" y="30">UNREGISTERED</text><text fill="#eeeeee" stroke="none" font-family="Arial" font-size="24px" font-style="normal" font-weight="normal" text-decoration="none" x="200" y="60">UNREGISTERED</text><text fill="#eeeeee" stroke="none" font-family="Arial" font-size="24px" font-style="normal" font-weight="normal" text-decoration="none" x="200" y="90">UNREGISTERED</text><text fill="#eeeeee" stroke="none" font-family="Arial" font-size="24px" font-style="normal" font-weight="normal" text-decoration="none" x="200" y="120">UNREGISTERED</text><text fill="#eeeeee" stroke="none" font-family="Arial" font-size="24px" font-style="normal" font-weight="normal" text-decoration="none" x="200" y="150">UNREGISTERED</text><text fill="#eeeeee" stroke="none" font-family="Arial" font-size="24px" font-style="normal" font-weight="normal" text-decoration="none" x="200" y="180">UNREGISTERED</text><text fill="#eeeeee" stroke="none" font-family="Arial" font-size="24px" font-style="normal" font-weight="normal" text-decoration="none" x="200" y="210">UNREGISTERED</text><text fill="#eeeeee" stroke="none" font-family="Arial" font-size="24px" font-style="normal" font-weight="normal" text-decoration="none" x="200" y="240">UNREGISTERED</text><text fill="#eeeeee" stroke="none" font-family="Arial" font-size="24px" font-style="normal" font-weight="normal" text-decoration="none" x="200" y="270">UNREGISTERED</text><text fill="#eeeeee" stroke="none" font-family="Arial" font-size="24px" font-style="normal" font-weight="normal" text-decoration="none" x="200" y="300">UNREGISTERED</text><text fill="#eeeeee" stroke="none" font-family="Arial" font-size="24px" font-style="normal" font-weight="normal" text-decoration="none" x="200" y="330">UNREGISTERED</text><text fill="#eeeeee" stroke="none" font-family="Arial" font-size="24px" font-style="normal" font-weight="normal" text-decoration="none" x="200" y="360">UNREGISTERED</text><text fill="#eeeeee" stroke="none" font-family="Arial" font-size="24px" font-style="normal" font-weight="normal" text-decoration="none" x="200" y="390">UNREGISTERED</text><text fill="#eeeeee" stroke="none" font-family="Arial" font-size="24px" font-style="normal" font-weight="normal" text-decoration="none" x="200" y="420">UNREGISTERED</text><text fill="#eeeeee" stroke="none" font-family="Arial" font-size="24px" font-style="normal" font-weight="normal" text-decoration="none" x="200" y="450">UNREGISTERED</text><text fill="#eeeeee" stroke="none" font-family="Arial" font-size="24px" font-style="normal" font-weight="normal" text-decoration="none" x="200" y="480">UNREGISTERED</text><text fill="#eeeeee" stroke="none" font-family="Arial" font-size="24px" font-style="normal" font-weight="normal" text-decoration="none" x="200" y="510">UNREGISTERED</text><text fill="#eeeeee" stroke="none" font-family="Arial" font-size="24px" font-style="normal" font-weight="normal" text-decoration="none" x="200" y="540">UNREGISTERED</text><text fill="#eeeeee" stroke="none" font-family="Arial" font-size="24px" font-style="normal" font-weight="normal" text-decoration="none" x="200" y="570">UNREGISTERED</text><text fill="#eeeeee" stroke="none" font-family="Arial" font-size="24px" font-style="normal" font-weight="normal" text-decoration="none" x="200" y="600">UNREGISTERED</text><text fill="#eeeeee" stroke="none" font-family="Arial" font-size="24px" font-style="normal" font-weight="normal" text-decoration="none" x="400" y="0">UNREGISTERED</text><text fill="#eeeeee" stroke="none" font-family="Arial" font-size="24px" font-style="normal" font-weight="normal" text-decoration="none" x="400" y="30">UNREGISTERED</text><text fill="#eeeeee" stroke="none" font-family="Arial" font-size="24px" font-style="normal" font-weight="normal" text-decoration="none" x="400" y="60">UNREGISTERED</text><text fill="#eeeeee" stroke="none" font-family="Arial" font-size="24px" font-style="normal" font-weight="normal" text-decoration="none" x="400" y="90">UNREGISTERED</text><text fill="#eeeeee" stroke="none" font-family="Arial" font-size="24px" font-style="normal" font-weight="normal" text-decoration="none" x="400" y="120">UNREGISTERED</text><text fill="#eeeeee" stroke="none" font-family="Arial" font-size="24px" font-style="normal" font-weight="normal" text-decoration="none" x="400" y="150">UNREGISTERED</text><text fill="#eeeeee" stroke="none" font-family="Arial" font-size="24px" font-style="normal" font-weight="normal" text-decoration="none" x="400" y="180">UNREGISTERED</text><text fill="#eeeeee" stroke="none" font-family="Arial" font-size="24px" font-style="normal" font-weight="normal" text-decoration="none" x="400" y="210">UNREGISTERED</text><text fill="#eeeeee" stroke="none" font-family="Arial" font-size="24px" font-style="normal" font-weight="normal" text-decoration="none" x="400" y="240">UNREGISTERED</text><text fill="#eeeeee" stroke="none" font-family="Arial" font-size="24px" font-style="normal" font-weight="normal" text-decoration="none" x="400" y="270">UNREGISTERED</text><text fill="#eeeeee" stroke="none" font-family="Arial" font-size="24px" font-style="normal" font-weight="normal" text-decoration="none" x="400" y="300">UNREGISTERED</text><text fill="#eeeeee" stroke="none" font-family="Arial" font-size="24px" font-style="normal" font-weight="normal" text-decoration="none" x="400" y="330">UNREGISTERED</text><text fill="#eeeeee" stroke="none" font-family="Arial" font-size="24px" font-style="normal" font-weight="normal" text-decoration="none" x="400" y="360">UNREGISTERED</text><text fill="#eeeeee" stroke="none" font-family="Arial" font-size="24px" font-style="normal" font-weight="normal" text-decoration="none" x="400" y="390">UNREGISTERED</text><text fill="#eeeeee" stroke="none" font-family="Arial" font-size="24px" font-style="normal" font-weight="normal" text-decoration="none" x="400" y="420">UNREGISTERED</text><text fill="#eeeeee" stroke="none" font-family="Arial" font-size="24px" font-style="normal" font-weight="normal" text-decoration="none" x="400" y="450">UNREGISTERED</text><text fill="#eeeeee" stroke="none" font-family="Arial" font-size="24px" font-style="normal" font-weight="normal" text-decoration="none" x="400" y="480">UNREGISTERED</text><text fill="#eeeeee" stroke="none" font-family="Arial" font-size="24px" font-style="normal" font-weight="normal" text-decoration="none" x="400" y="510">UNREGISTERED</text><text fill="#eeeeee" stroke="none" font-family="Arial" font-size="24px" font-style="normal" font-weight="normal" text-decoration="none" x="400" y="540">UNREGISTERED</text><text fill="#eeeeee" stroke="none" font-family="Arial" font-size="24px" font-style="normal" font-weight="normal" text-decoration="none" x="400" y="570">UNREGISTERED</text><text fill="#eeeeee" stroke="none" font-family="Arial" font-size="24px" font-style="normal" font-weight="normal" text-decoration="none" x="400" y="600">UNREGISTERED</text><text fill="#eeeeee" stroke="none" font-family="Arial" font-size="24px" font-style="normal" font-weight="normal" text-decoration="none" x="600" y="0">UNREGISTERED</text><text fill="#eeeeee" stroke="none" font-family="Arial" font-size="24px" font-style="normal" font-weight="normal" text-decoration="none" x="600" y="30">UNREGISTERED</text><text fill="#eeeeee" stroke="none" font-family="Arial" font-size="24px" font-style="normal" font-weight="normal" text-decoration="none" x="600" y="60">UNREGISTERED</text><text fill="#eeeeee" stroke="none" font-family="Arial" font-size="24px" font-style="normal" font-weight="normal" text-decoration="none" x="600" y="90">UNREGISTERED</text><text fill="#eeeeee" stroke="none" font-family="Arial" font-size="24px" font-style="normal" font-weight="normal" text-decoration="none" x="600" y="120">UNREGISTERED</text><text fill="#eeeeee" stroke="none" font-family="Arial" font-size="24px" font-style="normal" font-weight="normal" text-decoration="none" x="600" y="150">UNREGISTERED</text><text fill="#eeeeee" stroke="none" font-family="Arial" font-size="24px" font-style="normal" font-weight="normal" text-decoration="none" x="600" y="180">UNREGISTERED</text><text fill="#eeeeee" stroke="none" font-family="Arial" font-size="24px" font-style="normal" font-weight="normal" text-decoration="none" x="600" y="210">UNREGISTERED</text><text fill="#eeeeee" stroke="none" font-family="Arial" font-size="24px" font-style="normal" font-weight="normal" text-decoration="none" x="600" y="240">UNREGISTERED</text><text fill="#eeeeee" stroke="none" font-family="Arial" font-size="24px" font-style="normal" font-weight="normal" text-decoration="none" x="600" y="270">UNREGISTERED</text><text fill="#eeeeee" stroke="none" font-family="Arial" font-size="24px" font-style="normal" font-weight="normal" text-decoration="none" x="600" y="300">UNREGISTERED</text><text fill="#eeeeee" stroke="none" font-family="Arial" font-size="24px" font-style="normal" font-weight="normal" text-decoration="none" x="600" y="330">UNREGISTERED</text><text fill="#eeeeee" stroke="none" font-family="Arial" font-size="24px" font-style="normal" font-weight="normal" text-decoration="none" x="600" y="360">UNREGISTERED</text><text fill="#eeeeee" stroke="none" font-family="Arial" font-size="24px" font-style="normal" font-weight="normal" text-decoration="none" x="600" y="390">UNREGISTERED</text><text fill="#eeeeee" stroke="none" font-family="Arial" font-size="24px" font-style="normal" font-weight="normal" text-decoration="none" x="600" y="420">UNREGISTERED</text><text fill="#eeeeee" stroke="none" font-family="Arial" font-size="24px" font-style="normal" font-weight="normal" text-decoration="none" x="600" y="450">UNREGISTERED</text><text fill="#eeeeee" stroke="none" font-family="Arial" font-size="24px" font-style="normal" font-weight="normal" text-decoration="none" x="600" y="480">UNREGISTERED</text><text fill="#eeeeee" stroke="none" font-family="Arial" font-size="24px" font-style="normal" font-weight="normal" text-decoration="none" x="600" y="510">UNREGISTERED</text><text fill="#eeeeee" stroke="none" font-family="Arial" font-size="24px" font-style="normal" font-weight="normal" text-decoration="none" x="600" y="540">UNREGISTERED</text><text fill="#eeeeee" stroke="none" font-family="Arial" font-size="24px" font-style="normal" font-weight="normal" text-decoration="none" x="600" y="570">UNREGISTERED</text><text fill="#eeeeee" stroke="none" font-family="Arial" font-size="24px" font-style="normal" font-weight="normal" text-decoration="none" x="600" y="600">UNREGISTERED</text><text fill="#eeeeee" stroke="none" font-family="Arial" font-size="24px" font-style="normal" font-weight="normal" text-decoration="none" x="800" y="0">UNREGISTERED</text><text fill="#eeeeee" stroke="none" font-family="Arial" font-size="24px" font-style="normal" font-weight="normal" text-decoration="none" x="800" y="30">UNREGISTERED</text><text fill="#eeeeee" stroke="none" font-family="Arial" font-size="24px" font-style="normal" font-weight="normal" text-decoration="none" x="800" y="60">UNREGISTERED</text><text fill="#eeeeee" stroke="none" font-family="Arial" font-size="24px" font-style="normal" font-weight="normal" text-decoration="none" x="800" y="90">UNREGISTERED</text><text fill="#eeeeee" stroke="none" font-family="Arial" font-size="24px" font-style="normal" font-weight="normal" text-decoration="none" x="800" y="120">UNREGISTERED</text><text fill="#eeeeee" stroke="none" font-family="Arial" font-size="24px" font-style="normal" font-weight="normal" text-decoration="none" x="800" y="150">UNREGISTERED</text><text fill="#eeeeee" stroke="none" font-family="Arial" font-size="24px" font-style="normal" font-weight="normal" text-decoration="none" x="800" y="180">UNREGISTERED</text><text fill="#eeeeee" stroke="none" font-family="Arial" font-size="24px" font-style="normal" font-weight="normal" text-decoration="none" x="800" y="210">UNREGISTERED</text><text fill="#eeeeee" stroke="none" font-family="Arial" font-size="24px" font-style="normal" font-weight="normal" text-decoration="none" x="800" y="240">UNREGISTERED</text><text fill="#eeeeee" stroke="none" font-family="Arial" font-size="24px" font-style="normal" font-weight="normal" text-decoration="none" x="800" y="270">UNREGISTERED</text><text fill="#eeeeee" stroke="none" font-family="Arial" font-size="24px" font-style="normal" font-weight="normal" text-decoration="none" x="800" y="300">UNREGISTERED</text><text fill="#eeeeee" stroke="none" font-family="Arial" font-size="24px" font-style="normal" font-weight="normal" text-decoration="none" x="800" y="330">UNREGISTERED</text><text fill="#eeeeee" stroke="none" font-family="Arial" font-size="24px" font-style="normal" font-weight="normal" text-decoration="none" x="800" y="360">UNREGISTERED</text><text fill="#eeeeee" stroke="none" font-family="Arial" font-size="24px" font-style="normal" font-weight="normal" text-decoration="none" x="800" y="390">UNREGISTERED</text><text fill="#eeeeee" stroke="none" font-family="Arial" font-size="24px" font-style="normal" font-weight="normal" text-decoration="none" x="800" y="420">UNREGISTERED</text><text fill="#eeeeee" stroke="none" font-family="Arial" font-size="24px" font-style="normal" font-weight="normal" text-decoration="none" x="800" y="450">UNREGISTERED</text><text fill="#eeeeee" stroke="none" font-family="Arial" font-size="24px" font-style="normal" font-weight="normal" text-decoration="none" x="800" y="480">UNREGISTERED</text><text fill="#eeeeee" stroke="none" font-family="Arial" font-size="24px" font-style="normal" font-weight="normal" text-decoration="none" x="800" y="510">UNREGISTERED</text><text fill="#eeeeee" stroke="none" font-family="Arial" font-size="24px" font-style="normal" font-weight="normal" text-decoration="none" x="800" y="540">UNREGISTERED</text><text fill="#eeeeee" stroke="none" font-family="Arial" font-size="24px" font-style="normal" font-weight="normal" text-decoration="none" x="800" y="570">UNREGISTERED</text><text fill="#eeeeee" stroke="none" font-family="Arial" font-size="24px" font-style="normal" font-weight="normal" text-decoration="none" x="800" y="600">UNREGISTERED</text><text fill="#eeeeee" stroke="none" font-family="Arial" font-size="24px" font-style="normal" font-weight="normal" text-decoration="none" x="1000" y="0">UNREGISTERED</text><text fill="#eeeeee" stroke="none" font-family="Arial" font-size="24px" font-style="normal" font-weight="normal" text-decoration="none" x="1000" y="30">UNREGISTERED</text><text fill="#eeeeee" stroke="none" font-family="Arial" font-size="24px" font-style="normal" font-weight="normal" text-decoration="none" x="1000" y="60">UNREGISTERED</text><text fill="#eeeeee" stroke="none" font-family="Arial" font-size="24px" font-style="normal" font-weight="normal" text-decoration="none" x="1000" y="90">UNREGISTERED</text><text fill="#eeeeee" stroke="none" font-family="Arial" font-size="24px" font-style="normal" font-weight="normal" text-decoration="none" x="1000" y="120">UNREGISTERED</text><text fill="#eeeeee" stroke="none" font-family="Arial" font-size="24px" font-style="normal" font-weight="normal" text-decoration="none" x="1000" y="150">UNREGISTERED</text><text fill="#eeeeee" stroke="none" font-family="Arial" font-size="24px" font-style="normal" font-weight="normal" text-decoration="none" x="1000" y="180">UNREGISTERED</text><text fill="#eeeeee" stroke="none" font-family="Arial" font-size="24px" font-style="normal" font-weight="normal" text-decoration="none" x="1000" y="210">UNREGISTERED</text><text fill="#eeeeee" stroke="none" font-family="Arial" font-size="24px" font-style="normal" font-weight="normal" text-decoration="none" x="1000" y="240">UNREGISTERED</text><text fill="#eeeeee" stroke="none" font-family="Arial" font-size="24px" font-style="normal" font-weight="normal" text-decoration="none" x="1000" y="270">UNREGISTERED</text><text fill="#eeeeee" stroke="none" font-family="Arial" font-size="24px" font-style="normal" font-weight="normal" text-decoration="none" x="1000" y="300">UNREGISTERED</text><text fill="#eeeeee" stroke="none" font-family="Arial" font-size="24px" font-style="normal" font-weight="normal" text-decoration="none" x="1000" y="330">UNREGISTERED</text><text fill="#eeeeee" stroke="none" font-family="Arial" font-size="24px" font-style="normal" font-weight="normal" text-decoration="none" x="1000" y="360">UNREGISTERED</text><text fill="#eeeeee" stroke="none" font-family="Arial" font-size="24px" font-style="normal" font-weight="normal" text-decoration="none" x="1000" y="390">UNREGISTERED</text><text fill="#eeeeee" stroke="none" font-family="Arial" font-size="24px" font-style="normal" font-weight="normal" text-decoration="none" x="1000" y="420">UNREGISTERED</text><text fill="#eeeeee" stroke="none" font-family="Arial" font-size="24px" font-style="normal" font-weight="normal" text-decoration="none" x="1000" y="450">UNREGISTERED</text><text fill="#eeeeee" stroke="none" font-family="Arial" font-size="24px" font-style="normal" font-weight="normal" text-decoration="none" x="1000" y="480">UNREGISTERED</text><text fill="#eeeeee" stroke="none" font-family="Arial" font-size="24px" font-style="normal" font-weight="normal" text-decoration="none" x="1000" y="510">UNREGISTERED</text><text fill="#eeeeee" stroke="none" font-family="Arial" font-size="24px" font-style="normal" font-weight="normal" text-decoration="none" x="1000" y="540">UNREGISTERED</text><text fill="#eeeeee" stroke="none" font-family="Arial" font-size="24px" font-style="normal" font-weight="normal" text-decoration="none" x="1000" y="570">UNREGISTERED</text><text fill="#eeeeee" stroke="none" font-family="Arial" font-size="24px" font-style="normal" font-weight="normal" text-decoration="none" x="1000" y="600">UNREGISTERED</text><g transform="translate(2,-22) scale(1,1)"><path fill="none" stroke="#000000" d="M 8 32 L 591 32 L 591 416 L 8 416 L 8 32" stroke-miterlimit="10"/></g><g transform="translate(2,-22) scale(1,1)"><path fill="#ffffff" stroke="none" d="M 8 32 L 8 54 L 24 54 L 35 43 L 35 32 L 8 32"/></g><g transform="translate(2,-22) scale(1,1)"><path fill="none" stroke="#000000" d="M 8 32 L 8 54 L 24 54 L 35 43 L 35 32 L 8 32 L 8 32" stroke-miterlimit="10"/></g><g transform="translate(2,-22) scale(1,1)"><g><path fill="none" stroke="none"/><text fill="#000000" stroke="none" font-family="Arial" font-size="13px" font-style="normal" font-weight="normal" text-decoration="none" x="19" y="49.5"></text></g></g><g transform="translate(2,-22) scale(1,1)"><g><path fill="none" stroke="none"/><text fill="#000000" stroke="none" font-family="Arial" font-size="13px" font-style="normal" font-weight="bold" text-decoration="none" x="13" y="49.5"></text></g></g><g transform="translate(2,-22) scale(1,1)"><path fill="#C0C0C0" stroke="none" d="M 295 153 L 483.5908203125 153 L 483.5908203125 230 L 295 230" opacity="0.2"/></g><g transform="translate(2,-22) scale(1,1)"><path fill="#C0C0C0" stroke="none" d="M 295 153 L 305 143 L 493.5908203125 143 L 483.5908203125 153" opacity="0.2"/></g><g transform="translate(2,-22) scale(1,1)"><path fill="#C0C0C0" stroke="none" d="M 493.5908203125 143 L 483.5908203125 153 L 483.5908203125 230 L 493.5908203125 220" opacity="0.2"/></g><g transform="translate(2,-22) scale(1,1)"><path fill="#ffffff" stroke="none" d="M 288 146 L 476.5908203125 146 L 476.5908203125 223 L 288 223"/></g><g transform="translate(2,-22) scale(1,1)"><path fill="#ffffff" stroke="none" d="M 288 146 L 298 136 L 486.5908203125 136 L 476.5908203125 146"/></g><g transform="translate(2,-22) scale(1,1)"><path fill="#ffffff" stroke="none" d="M 486.5908203125 136 L 476.5908203125 146 L 476.5908203125 223 L 486.5908203125 213"/></g><g transform="translate(2,-22) scale(1,1)"><path fill="none" stroke="#000000" d="M 288 146 L 476.5908203125 146 L 476.5908203125 223 L 288 223 L 288 146" stroke-miterlimit="10"/></g><g transform="translate(2,-22) scale(1,1)"><path fill="none" stroke="#000000" d="M 288 146 L 298 136 L 486.5908203125 136 L 476.5908203125 146 L 288 146" stroke-miterlimit="10"/></g><g transform="translate(2,-22) scale(1,1)"><path fill="none" stroke="#000000" d="M 486.5908203125 136 L 476.5908203125 146 L 476.5908203125 223 L 486.5908203125 213 L 486.5908203125 136" stroke-miterlimit="10"/></g><g transform="translate(2,-22) scale(1,1)"><g><path fill="none" stroke="none"/><text fill="#000000" stroke="none" font-family="Arial" font-size="13px" font-style="normal" font-weight="bold" text-decoration="none" x="300.056884765625" y="165.5">Application Docker container</text></g></g><g transform="translate(2,-22) scale(1,1)"><rect fill="#C0C0C0" stroke="none" x="161" y="287" width="254" height="120" opacity="0.2"/></g><g transform="translate(2,-22) scale(1,1)"><rect fill="#ffffff" stroke="none" x="154" y="280" width="254" height="120"/></g><g transform="translate(2,-22) scale(1,1)"><path fill="none" stroke="#000000" d="M 154 280 L 408 280 L 408 400 L 154 400 L 154 280 Z Z" stroke-miterlimit="10"/></g><g transform="translate(2,-22) scale(1,1)"><rect fill="#ffffff" stroke="none" x="144" y="287" width="20" height="10"/></g><g transform="translate(2,-22) scale(1,1)"><path fill="none" stroke="#000000" d="M 144 287 L 164 287 L 164 297 L 144 297 L 144 287 Z Z" stroke-miterlimit="10"/></g><g transform="translate(2,-22) scale(1,1)"><rect fill="#ffffff" stroke="none" x="144" y="307" width="20" height="10"/></g><g transform="translate(2,-22) scale(1,1)"><path fill="none" stroke="#000000" d="M 144 307 L 164 307 L 164 317 L 144 317 L 144 307 Z Z" stroke-miterlimit="10"/></g><g transform="translate(2,-22) scale(1,1)"><g><path fill="none" stroke="none"/><text fill="#000000" stroke="none" font-family="Arial" font-size="13px" font-style="normal" font-weight="bold" text-decoration="none" x="226.7509765625" y="299.5">Healthcheck Service</text></g></g><g transform="translate(2,-22) scale(1,1)"><path fill="none" stroke="#000000" d="M 318 279 L 356 225" stroke-miterlimit="10" stroke-dasharray="3"/></g><g transform="translate(2,-22) scale(1,1)"><path fill="none" stroke="#000000" d="M 353.5940182733712 235.7336504475937 L 356 225 L 346.70887698731036 230.8885510240694" stroke-miterlimit="10"/></g><g transform="translate(2,-22) scale(1,1)"><g><path fill="none" stroke="none"/><text fill="#000000" stroke="none" font-family="Arial" font-size="13px" font-style="normal" font-weight="normal" text-decoration="none" x="285.5" y="240.5">«deploy»</text></g></g><g transform="translate(2,-22) scale(1,1)"><rect fill="#C0C0C0" stroke="none" x="191" y="359" width="130.39892578125" height="24" opacity="0.2"/></g><g transform="translate(2,-22) scale(1,1)"><rect fill="#ffffff" stroke="none" x="184" y="352" width="130.39892578125" height="24"/></g><g transform="translate(2,-22) scale(1,1)"><path fill="none" stroke="#000000" d="M 184 352 L 314.39892578125 352 L 314.39892578125 376 L 184 376 L 184 352 Z Z" stroke-miterlimit="10"/></g><g transform="translate(2,-22) scale(1,1)"><rect fill="#ffffff" stroke="none" x="184" y="352" width="130.39892578125" height="24"/></g><g transform="translate(2,-22) scale(1,1)"><path fill="none" stroke="#000000" d="M 184 352 L 314.39892578125 352 L 314.39892578125 376 L 184 376 L 184 352 Z Z" stroke-miterlimit="10"/></g><g transform="translate(2,-22) scale(1,1)"><g><path fill="none" stroke="none"/><text fill="#000000" stroke="none" font-family="Arial" font-size="13px" font-style="normal" font-weight="bold" text-decoration="none" x="193.5654296875" y="371.5">Elastcisearch client</text></g></g><g transform="translate(2,-22) scale(1,1)"><path fill="#C0C0C0" stroke="none" d="M 935 489 L 1100 489 L 1100 638 L 935 638" opacity="0.2"/></g><g transform="translate(2,-22) scale(1,1)"><path fill="#C0C0C0" stroke="none" d="M 935 489 L 945 479 L 1110 479 L 1100 489" opacity="0.2"/></g><g transform="translate(2,-22) scale(1,1)"><path fill="#C0C0C0" stroke="none" d="M 1110 479 L 1100 489 L 1100 638 L 1110 628" opacity="0.2"/></g><g transform="translate(2,-22) scale(1,1)"><path fill="#ffffff" stroke="none" d="M 928 482 L 1093 482 L 1093 631 L 928 631"/></g><g transform="translate(2,-22) scale(1,1)"><path fill="#ffffff" stroke="none" d="M 928 482 L 938 472 L 1103 472 L 1093 482"/></g><g transform="translate(2,-22) scale(1,1)"><path fill="#ffffff" stroke="none" d="M 1103 472 L 1093 482 L 1093 631 L 1103 621"/></g><g transform="translate(2,-22) scale(1,1)"><path fill="none" stroke="#000000" d="M 928 482 L 1093 482 L 1093 631 L 928 631 L 928 482" stroke-miterlimit="10"/></g><g transform="translate(2,-22) scale(1,1)"><path fill="none" stroke="#000000" d="M 928 482 L 938 472 L 1103 472 L 1093 482 L 928 482" stroke-miterlimit="10"/></g><g transform="translate(2,-22) scale(1,1)"><path fill="none" stroke="#000000" d="M 1103 472 L 1093 482 L 1093 631 L 1103 621 L 1103 472" stroke-miterlimit="10"/></g><g transform="translate(2,-22) scale(1,1)"><g><path fill="none" stroke="none"/><text fill="#000000" stroke="none" font-family="Arial" font-size="13px" font-style="normal" font-weight="bold" text-decoration="none" x="972.345947265625" y="501.5">Elasticsearch</text></g></g><g transform="translate(2,-22) scale(1,1)"><rect fill="#C0C0C0" stroke="none" x="697" y="575" width="129.54443359375" height="44" opacity="0.2"/></g><g transform="translate(2,-22) scale(1,1)"><rect fill="#ffffff" stroke="none" x="690" y="568" width="129.54443359375" height="44"/></g><g transform="translate(2,-22) scale(1,1)"><path fill="none" stroke="#000000" d="M 690 568 L 819.54443359375 568 L 819.54443359375 612 L 690 612 L 690 568 Z Z" stroke-miterlimit="10"/></g><g transform="translate(2,-22) scale(1,1)"><rect fill="#ffffff" stroke="none" x="680" y="575" width="20" height="10"/></g><g transform="translate(2,-22) scale(1,1)"><path fill="none" stroke="#000000" d="M 680 575 L 700 575 L 700 585 L 680 585 L 680 575 Z Z" stroke-miterlimit="10"/></g><g transform="translate(2,-22) scale(1,1)"><rect fill="#ffffff" stroke="none" x="680" y="595" width="20" height="10"/></g><g transform="translate(2,-22) scale(1,1)"><path fill="none" stroke="#000000" d="M 680 595 L 700 595 L 700 605 L 680 605 L 680 595 Z Z" stroke-miterlimit="10"/></g><g transform="translate(2,-22) scale(1,1)"><g><path fill="none" stroke="none"/><text fill="#000000" stroke="none" font-family="Arial" font-size="13px" font-style="normal" font-weight="bold" text-decoration="none" x="708.102294921875" y="587.5">HealthcheckIndex</text></g></g><g transform="translate(2,-22) scale(1,1)"><path fill="none" stroke="#000000" d="M 821 580 L 927 565" stroke-miterlimit="10" stroke-dasharray="3"/></g><g transform="translate(2,-22) scale(1,1)"><path fill="none" stroke="#000000" d="M 917.5273856724823 570.5919207614296 L 927 565 L 916.3477650831827 562.2559352637121" stroke-miterlimit="10"/></g><g transform="translate(2,-22) scale(1,1)"><g><path fill="none" stroke="none"/><text fill="#000000" stroke="none" font-family="Arial" font-size="13px" font-style="normal" font-weight="normal" text-decoration="none" x="843.5" y="548.5">«deploy»</text></g></g><g transform="translate(2,-22) scale(1,1)"><path fill="none" stroke="#000000" d="M 278 377 L 698 567" stroke-miterlimit="10" stroke-dasharray="3"/></g><g transform="translate(2,-22) scale(1,1)"><path fill="none" stroke="#000000" d="M 687.0056784533726 566.6465969307344 L 698 567 L 690.4757343866042 558.9759469730647" stroke-miterlimit="10"/></g><g transform="translate(2,-22) scale(1,1)"><g><path fill="none" stroke="none"/><text fill="#000000" stroke="none" font-family="Arial" font-size="13px" font-style="normal" font-weight="normal" text-decoration="none" x="398.5" y="464.5">+ELASTICSEARCH REST HTTP</text></g></g><g transform="translate(2,-22) scale(1,1)"><rect fill="#C0C0C0" stroke="none" x="65" y="95" width="122.29541015625" height="44" opacity="0.2"/></g><g transform="translate(2,-22) scale(1,1)"><rect fill="#ffffff" stroke="none" x="58" y="88" width="122.29541015625" height="44"/></g><g transform="translate(2,-22) scale(1,1)"><path fill="none" stroke="#000000" d="M 58 88 L 180.29541015625 88 L 180.29541015625 132 L 58 132 L 58 88 Z Z" stroke-miterlimit="10"/></g><g transform="translate(2,-22) scale(1,1)"><rect fill="#ffffff" stroke="none" x="48" y="95" width="20" height="10"/></g><g transform="translate(2,-22) scale(1,1)"><path fill="none" stroke="#000000" d="M 48 95 L 68 95 L 68 105 L 48 105 L 48 95 Z Z" stroke-miterlimit="10"/></g><g transform="translate(2,-22) scale(1,1)"><rect fill="#ffffff" stroke="none" x="48" y="115" width="20" height="10"/></g><g transform="translate(2,-22) scale(1,1)"><path fill="none" stroke="#000000" d="M 48 115 L 68 115 L 68 125 L 48 125 L 48 115 Z Z" stroke-miterlimit="10"/></g><g transform="translate(2,-22) scale(1,1)"><g><path fill="none" stroke="none"/><text fill="#000000" stroke="none" font-family="Arial" font-size="13px" font-style="normal" font-weight="bold" text-decoration="none" x="76.819580078125" y="107.5">User Application</text></g></g><g transform="translate(2,-22) scale(1,1)"><path fill="none" stroke="#000000" d="M 181 127 L 287 154" stroke-miterlimit="10" stroke-dasharray="3"/></g><g transform="translate(2,-22) scale(1,1)"><path fill="none" stroke="#000000" d="M 276.1127265414818 155.57075670918323 L 287 154 L 278.1908423881917 147.41222782950717" stroke-miterlimit="10"/></g><g transform="translate(2,-22) scale(1,1)"><g><path fill="none" stroke="none"/><text fill="#000000" stroke="none" font-family="Arial" font-size="13px" font-style="normal" font-weight="normal" text-decoration="none" x="214.5" y="116.5">«deploy»</text></g></g><g transform="translate(2,-22) scale(1,1)"><path fill="#C0C0C0" stroke="none" d="M 190.214111328125 198.5 C 190.214111328125 192.1487248 195.362836128125 187 201.714111328125 187 C 208.065386528125 187 213.214111328125 192.1487248 213.214111328125 198.5 C 213.214111328125 204.8512752 208.065386528125 210 201.714111328125 210 C 195.362836128125 210 190.214111328125 204.8512752 190.214111328125 198.5 Z" opacity="0.2"/></g><g transform="translate(2,-22) scale(1,1)"><path fill="#ffffff" stroke="none" d="M 183.214111328125 191.5 C 183.214111328125 185.1487248 188.362836128125 180 194.714111328125 180 C 201.065386528125 180 206.214111328125 185.1487248 206.214111328125 191.5 C 206.214111328125 197.8512752 201.065386528125 203 194.714111328125 203 C 188.362836128125 203 183.214111328125 197.8512752 183.214111328125 191.5 Z"/></g><g transform="translate(2,-22) scale(1,1)"><path fill="none" stroke="#000000" d="M 183.214111328125 191.5 C 183.214111328125 185.1487248 188.362836128125 180 194.714111328125 180 C 201.065386528125 180 206.214111328125 185.1487248 206.214111328125 191.5 C 206.214111328125 197.8512752 201.065386528125 203 194.714111328125 203 C 188.362836128125 203 183.214111328125 197.8512752 183.214111328125 191.5 Z" stroke-miterlimit="10"/></g><g transform="translate(2,-22) scale(1,1)"><g><path fill="none" stroke="none"/><text fill="#000000" stroke="none" font-family="Arial" font-size="13px" font-style="normal" font-weight="bold" text-decoration="none" x="150.997802734375" y="222.5">HTTP endpoint</text></g></g><g transform="translate(2,-22) scale(1,1)"><path fill="none" stroke="#000000" d="M 239 279 L 198.73684210526315 203" stroke-miterlimit="10"/></g><g transform="translate(2,-22) scale(1,1)"><path fill="none" stroke="#000000" d="M 117.38461538461539 167.4230769230769 A 11.5 11.5 0 0 1 138.6153846153846 158.57692307692307" stroke-miterlimit="10"/></g><g transform="translate(2,-22) scale(1,1)"><g><path fill="none" stroke="none"/><text fill="#000000" stroke="none" font-family="Arial" font-size="13px" font-style="normal" font-weight="bold" text-decoration="none" x="79.37548828125" y="194.5">HTTP  connector</text></g></g><g transform="translate(2,-22) scale(1,1)"><path fill="none" stroke="#000000" d="M 119 133 L 123.41666666666667 152" stroke-miterlimit="10"/></g><g transform="translate(2,-22) scale(1,1)"><path fill="#C0C0C0" stroke="none" d="M 1047 241 L 1148 241 L 1148 366 L 1047 366" opacity="0.2"/></g><g transform="translate(2,-22) scale(1,1)"><path fill="#C0C0C0" stroke="none" d="M 1047 241 L 1057 231 L 1158 231 L 1148 241" opacity="0.2"/></g><g transform="translate(2,-22) scale(1,1)"><path fill="#C0C0C0" stroke="none" d="M 1158 231 L 1148 241 L 1148 366 L 1158 356" opacity="0.2"/></g><g transform="translate(2,-22) scale(1,1)"><path fill="#ffffff" stroke="none" d="M 1040 234 L 1141 234 L 1141 359 L 1040 359"/></g><g transform="translate(2,-22) scale(1,1)"><path fill="#ffffff" stroke="none" d="M 1040 234 L 1050 224 L 1151 224 L 1141 234"/></g><g transform="translate(2,-22) scale(1,1)"><path fill="#ffffff" stroke="none" d="M 1151 224 L 1141 234 L 1141 359 L 1151 349"/></g><g transform="translate(2,-22) scale(1,1)"><path fill="none" stroke="#000000" d="M 1040 234 L 1141 234 L 1141 359 L 1040 359 L 1040 234" stroke-miterlimit="10"/></g><g transform="translate(2,-22) scale(1,1)"><path fill="none" stroke="#000000" d="M 1040 234 L 1050 224 L 1151 224 L 1141 234 L 1040 234" stroke-miterlimit="10"/></g><g transform="translate(2,-22) scale(1,1)"><path fill="none" stroke="#000000" d="M 1151 224 L 1141 234 L 1141 359 L 1151 349 L 1151 224" stroke-miterlimit="10"/></g><g transform="translate(2,-22) scale(1,1)"><g><path fill="none" stroke="none"/><text fill="#000000" stroke="none" font-family="Arial" font-size="13px" font-style="normal" font-weight="bold" text-decoration="none" x="1070.760498046875" y="253.5">Kibana</text></g></g><g transform="translate(2,-22) scale(1,1)"><path fill="none" stroke="#000000" d="M 1075 361 L 1041 471" stroke-miterlimit="10"/></g><g transform="translate(2,-22) scale(1,1)"><g><path fill="none" stroke="none"/><text fill="#000000" stroke="none" font-family="Arial" font-size="13px" font-style="normal" font-weight="normal" text-decoration="none" x="1017.5" y="426.5">+HTTP connection</text></g></g></g></svg>